{"title":"A.Million.Ways.to.Die.in.the.West.2014.BRRip.720p.x264.AAC-PRiST","uid":10971927,"size":734863987,"categoryP":"video","categoryS":"hd___movies","magnet":"?xt=urn:btih:1df32ed15e4503c1a0ba281dc9d2f810167d4aa0&amp;dn=A.Million.Ways.to.Die.in.the.West.2014.BRRip.720p.x264.AAC-PRiST&amp;tr=udp%3A%2F%2Ftracker.openbittorrent.com%3A80&amp;tr=udp%3A%2F%2Fopen.demonii.com%3A1337&amp;tr=udp%3A%2F%2Ftracker.coppersurfer.tk%3A6969&amp;tr=udp%3A%2F%2Fexodus.desync.com%3A6969","seeders":4,"leechers":3,"uploader":"ValidusVyto","files":-1,"time":1409804729,"description":" ___    ___       ___   _____    _   _  ___   \n(  _` |  _`  _ (  _`(_   _)_ ( ) ( )(  _` \n| |_) )| (_) )(_)| (_(_) | | (_)| `| || (_(_)\n| ,__/'| ,  / | |`__   | | | || , ` ||  _)_ \n| |    | |  | |( )_) | | | | || |` || (_( )\n(_)    (_) (_)(_)`____) (_) (_)(_) (_)(____/' \n\n\nA.Million.Ways.to.Die.in.the.West.2014.BRRip.720p.x264.AAC-PRiSTiNE\n\n\nGenre: Comedy | Western &lt;a href=&quot;\nhttp://www.imdb.com/title/tt2557490/&quot; rel=&quot;nofollow&quot; target=&quot;_NEW&quot;&gt;\nhttp://www.imdb.com/title/tt2557490/&lt;/a&gt;\n\n\nFormat                         : MPEG-4\nFile size                      : 692 MiB\nDuration                       : 1h 55mn\nOverall bit rate               : 835 Kbps\n\nVideo\nFormat                         : AVC\nFormat profile                 : &lt;a class=&quot;__cf_email__&quot; href=&quot;/cdn-cgi/l/email-protection&quot; data-cfemail=&quot;e0a8898788a0acd4ced1&quot;&gt;[email&amp;#160;protected]&lt;/a&gt;&lt;script cf-hash='f9e31' type=&quot;text/javascript&quot;&gt;\n/* &lt;![CDATA[ */!function(){try{var t=&quot;currentScript&quot;in document?document.currentScript:function(){for(var t=document.getElementsByTagName(&quot;script&quot;),e=t.length;e--;)if(t[e].getAttribute(&quot;cf-hash&quot;))return t[e]}();if(t&amp;&amp;t.previousSibling){var e,r,n,i,c=t.previousSibling,a=c.getAttribute(&quot;data-cfemail&quot;);if(a){for(e=&quot;&quot;,r=parseInt(a.substr(0,2),16),n=2;a.length-n;n+=2)i=parseInt(a.substr(n,2),16)^r,e+=String.fromCharCode(i);e=document.createTextNode(e),c.parentNode.replaceChild(e,c)}}}catch(u){}}();/* ]]&gt; */&lt;/script&gt;\nDuration                       : 1h 55mn\nBit rate                       : 750 Kbps\nWidth                          : 1 280 pixels\nHeight                         : 536 pixels\nDisplay aspect ratio           : 2.40:1\nFrame rate mode                : Variable\nFrame rate                     : 23.976 fps\nBit depth                      : 8 bits\nStream size                    : 622 MiB (90%)\nWriting library                : x264 core 142 r2389 956c8d8\n\nAudio\nFormat                         : AAC\nBit rate                       : 80.0 Kbps\nChannel(s)                     : 2 channels\nChannel positions              : Front: L R\nSampling rate                  : 48.0 KHz\nStream size                    : 66.3 MiB (10%)\nLanguage                       : English\n\nSubtitle                       : Yes (English)\n &lt;a href=&quot;\nhttp://someimage.com/IPQsgm8&quot; rel=&quot;nofollow&quot; target=&quot;_NEW&quot;&gt;\nhttp://someimage.com/IPQsgm8&lt;/a&gt; &lt;a href=&quot;\nhttp://someimage.com/22tdTLY&quot; rel=&quot;nofollow&quot; target=&quot;_NEW&quot;&gt;\nhttp://someimage.com/22tdTLY&lt;/a&gt; &lt;a href=&quot;\nhttp://someimage.com/wQB3u78&quot; rel=&quot;nofollow&quot; target=&quot;_NEW&quot;&gt;\nhttp://someimage.com/wQB3u78&lt;/a&gt; &lt;a href=&quot;\nhttp://someimage.com/NxVZzIj&quot; rel=&quot;nofollow&quot; target=&quot;_NEW&quot;&gt;\nhttp://someimage.com/NxVZzIj&lt;/a&gt; &lt;a href=&quot;\nhttp://someimage.com/r05cixB&quot; rel=&quot;nofollow&quot; target=&quot;_NEW&quot;&gt;\nhttp://someimage.com/r05cixB&lt;/a&gt; &lt;a href=&quot;\nhttp://someimage.com/plTSmUM&quot; rel=&quot;nofollow&quot; target=&quot;_NEW&quot;&gt;\nhttp://someimage.com/plTSmUM&lt;/a&gt; &lt;a href=&quot;\nhttp://someimage.com/bkEV0eq&quot; rel=&quot;nofollow&quot; target=&quot;_NEW&quot;&gt;\nhttp://someimage.com/bkEV0eq&lt;/a&gt; &lt;a href=&quot;\nhttp://someimage.com/fbyYEFa&quot; rel=&quot;nofollow&quot; target=&quot;_NEW&quot;&gt;\nhttp://someimage.com/fbyYEFa&lt;/a&gt;\n\n----------------------------------------------------------------------------------------------------\n\n\nRecommend to you to use latest version of VLC player. Install K-Lite Codec Pack or shark007 codecs\nin case of any kind of problem in playback (For non-VLC Media Player users). Alternatively, install\nCore AVC codecs, the fastest decoder that there is coupled with Community Center Codec Pack and play\non Windows Media Player Classic. Check sample to be sure.\n\nEncoder Notes:Looking For Early Access To Anything You Can Provide DVDScr, R5, DVDR, BluRay, Direct\nAudio, Music Releases and Seedboxes. We require dedicated servers, so as to do more \nand fast releases of movies.\n\nFind us @ P2PDL\nSearch it!","torrent":{"xt":"urn:btih:1df32ed15e4503c1a0ba281dc9d2f810167d4aa0","amp;dn":"A.Million.Ways.to.Die.in.the.West.2014.BRRip.720p.x264.AAC-PRiST","amp;tr":["udp%3A%2F%2Ftracker.openbittorrent.com%3A80","udp%3A%2F%2Fopen.demonii.com%3A1337","udp%3A%2F%2Ftracker.coppersurfer.tk%3A6969","udp%3A%2F%2Fexodus.desync.com%3A6969"],"infoHash":"1df32ed15e4503c1a0ba281dc9d2f810167d4aa0","infoHashBuffer":{"type":"Buffer","data":[29,243,46,209,94,69,3,193,160,186,40,29,201,210,248,16,22,125,74,160]},"announce":[],"urlList":[]}}